<?xml version="1.0" encoding="UTF-8"?>
<svg id="Livello_1" data-name="Livello 1" xmlns="http://www.w3.org/2000/svg" viewBox="0 0 68.81 78.94">
  <defs>
    <style>
      .cls-1 {
        stroke: #000;
        stroke-width: 1.5px;
      }

      .cls-1, .cls-2 {
        stroke-miterlimit: 10;
      }

      .cls-2 {
        fill: none;
        stroke: #878787;
        stroke-width: .3px;
      }

      .cls-3 {
        fill: #1d1d1b;
      }
    </style>
  </defs>
  <path class="cls-2" d="m4.7,64.24v.41h1.04c.15,0,.31-.01.46,0,1.19-1.17,2.39-2.34,3.58-3.51,1.46-1.43,2.9-2.87,4.38-4.28.45-.42.64-.88.62-1.48-.03-.87.02-1.74-.02-2.61-.03-.6.14-1.06.61-1.47.61-.53,1.16-1.12,1.74-1.69,1.25-1.23,2.5-2.47,3.72-3.68.52-.05.96-.11,1.43.05v18.68h1.14c0-6.11,0-12.22.02-18.33,0-.1.04-.2.08-.39h.69c.13.44.08.86.08,1.27,0,5.81,0,11.63,0,17.44h1.63c0-5.81,0-11.61,0-17.42,0-.38.01-.77.03-1.15,0-.06.08-.11.14-.19.18.02.38.03.63.05.02.39.04.74.04,1.08,0,5.87,0,11.75,0,17.62h1.32c0-5.81,0-11.61,0-17.42,0-.41.02-.82.04-1.35,1.26,0,2.45-.02,3.66,0,1.09,1.08,2.15,2.16,3.25,3.19.44.42.69.86.62,1.47-.03.24,0,.49,0,.73,0,4.46,0,8.91,0,13.37h1.37c0-5.12,0-10.26,0-15.4,0-.03,0-.07.03-.09.02-.02.07-.01.17-.03.19.18.41.39.65.61v1.06c0,4.62,0,9.23,0,13.85h1.34c0-3.92,0-7.85,0-11.77,0-.94-.03-1.88,0-2.82.03-.64-.16-1.13-.65-1.57-.74-.65-1.42-1.36-2.11-2.06-.1-.1-.34-.17-.19-.41.09.07.18.13.26.2,2.46,2.41,4.92,4.83,7.4,7.22.44.43.61.87.61,1.47-.03,2.26.02,4.53-.03,6.79-.01.76.23,1.31.79,1.83.4.36.78.74,1.17,1.11h1.91c-.54-.52-1.07-1.05-1.61-1.57-.15-.15-.29-.31-.45-.44-.29-.24-.43-.54-.41-.92.01-.21,0-.42,0-.63,0-1.29,0-2.58,0-3.87,0-1.3.04-2.6-.06-4,.28.26.49.44.68.63,1.26,1.23,2.52,2.46,3.77,3.7,1.01,1,.88.61.88,2.08,0,1.67,0,3.35,0,5.02h1.42v-6.85c.5.25.83.5.83,1.03,0,.28,0,.56,0,.84,0,1.66,0,3.32,0,4.98h1.33c0-1.79,0-3.59,0-5.38,0-.31,0-.63,0-.94,0-.33-.12-.61-.37-.84-.15-.14-.3-.3-.45-.44-1.41-1.38-2.82-2.76-4.22-4.14-.19-.19-.35-.41-.52-.61,1.33,0,2.61.02,3.88,0,.54-.01.93.16,1.31.54,1.77,1.77,3.56,3.5,5.34,5.25.12.12.22.26.34.4v1.17c0,1.67,0,3.34,0,5.01h1.35c0-1.81,0-3.62,0-5.43,0-.38-.02-.77-.03-1.15,0-.13-.08-.28.12-.32.64.34.84.86.8,1.56-.04.76.03,1.53-.02,2.3-.06.83.23,1.44.84,2.02.36.34.71.69,1.06,1.03h.07v-1.83s-.09-.09-.13-.13c-.32-.31-.49-.64-.48-1.1.03-1.01,0-2.02.02-3.03.01-.49-.15-.87-.51-1.2-.64-.6-1.26-1.23-1.89-1.84-2.09-2.04-4.18-4.08-6.25-6.14-.44-.43-.89-.63-1.5-.6-.96.03-1.92-.01-2.88.02-.51.02-.87-.17-1.21-.51-1.79-1.79-3.61-3.56-5.41-5.34-.08-.08-.31-.14-.08-.46.2.24.35.48.55.67,1.38,1.36,2.78,2.69,4.14,4.07.51.52,1.06.75,1.79.71.89-.05,1.78.02,2.66-.02.55-.03.93.18,1.3.55,3.28,3.24,6.58,6.46,9.87,9.68,0,0,0,0,0,0v-1.89c-2.14-2.09-4.27-4.19-6.41-6.28-.98-.96-1.97-1.91-2.94-2.89-.37-.38-.79-.55-1.32-.54-.92.02-1.85-.04-2.77.02-.67.04-1.12-.2-1.58-.66-1.66-1.67-3.36-3.31-5.04-4.96-.2-.2-.39-.4-.55-.58v-1.17c3.38,0,6.71,0,10.04,0,3.38,0,6.75,0,10.13,0h.44v-1.32c-6.93,0-13.85,0-20.75,0-.1,0-.19-.06-.32-.11v-.58c.08-.05.14-.11.2-.11.35-.02.7-.04,1.05-.04,6.61,0,13.21,0,19.82,0v-1.36c-3.67,0-7.35,0-11.02,0-2.84,0-5.69,0-8.53,0-.35,0-.71.08-1.03-.11-.09-.25-.12-.48.13-.7h20.45v-1.33c-6.34,0-12.68,0-19.02,0-.32,0-.64.01-.96,0-.2,0-.4-.06-.62-.09-.02-.25-.05-.46-.05-.66,0-.87,0-1.74,0-2.61,1.06-1.04,2.08-2.05,3.12-3.05.16-.15.29-.28.39-.39.08-.86.66-1.67,1.77-1.67h15.38v-.24c-5.55,0-11.1,0-16.65,0-.16,0-.32-.02-.57-.04.32-.59.69-.89,1.31-.82.25.03.5,0,.75,0,5.05,0,10.11,0,15.16.01v-1.31h-11.18c-1.63,0-3.27.03-4.9-.01-.73-.02-1.29.16-1.79.7-.71.78-1.49,1.49-2.25,2.22-.09.09-.17.3-.41.15,2.7-2.65,5.39-5.29,8.06-7.93.28-.28.59-.34.96-.34,2.27,0,4.55.01,6.82,0,1.61,0,1.27.17,2.49-1.03.73-.71,1.46-1.43,2.19-2.14v-1.88s-.08.06-.12.11c-1,1.04-2.06,2.02-3.07,3.04-.37.37-.75.57-1.3.56-1.38-.03-2.77-.01-4.16,0-1.39,0-2.79-.03-4.23.04.09-.13.13-.23.2-.3,1.53-1.51,3.07-3,4.59-4.52.3-.3.63-.43,1.04-.41.28.02.57,0,.85,0,2.07,0,4.13,0,6.2,0v-.65c0-.24.01-.47.02-.71h-6.68c-.25,0-.5.02-.75,0-.58-.05-1.03.15-1.41.58-.21.24-.45.44-.68.66-3.31,3.25-6.63,6.51-9.94,9.76-.18.18-.33.43-.8.54.35-.35.56-.58.78-.79,3.42-3.35,6.84-6.7,10.25-10.05.4-.39.8-.79,1.19-1.19.23-.24.49-.38.84-.36.25.02.5,0,.75,0,2.16,0,4.31,0,6.47,0,.02-.44.06-.87.1-1.3-2.34,0-4.69,0-7.03,0-.28,0-.57,0-.85,0-.34,0-.62.12-.85.36-.17.18-.35.34-.53.52-1.43,1.4-2.86,2.81-4.3,4.21-.13.13-.24.36-.52.25,0-1.21.02-2.42-.01-3.64-.02-.53.15-.92.54-1.29,1.07-1.03,2.14-2.08,3.21-3.12h-4.14c-.84.82-1.67,1.64-2.51,2.45-.44.43-.64.87-.62,1.47.03.94-.01,1.88.02,2.82.01.49-.16.85-.51,1.19-1.77,1.71-3.52,3.44-5.29,5.16-.11.1-.19.31-.46.2.25-.25.49-.5.74-.74,1.35-1.33,2.69-2.68,4.06-3.99.41-.4.6-.83.58-1.39-.03-.94.02-1.88-.02-2.82-.02-.54.18-.91.56-1.28,1.05-1.02,2.1-2.05,3.15-3.08h-1.93c-.81.79-1.62,1.59-2.43,2.38-.52.51-.77,1.03-.74,1.75.05,1.11.01,2.23.01,3.3-.16.18-.28.31-.4.43-1.76,1.73-3.54,3.43-5.26,5.18-.52.53-1.06.61-1.72.46-.04-.12-.11-.21-.11-.31,0-4.39,0-8.8,0-13.2h-1.37c-.01,4.43-.02,8.86-.03,13.28,0,.06-.06.12-.12.22-.14.01-.31.03-.53.05-.06-.18-.13-.33-.15-.49-.02-.28-.01-.56-.01-.83,0-4.08,0-8.15,0-12.23h-1.38c0,4.07,0,8.15,0,12.22,0,.35,0,.7-.03,1.04,0,.09-.08.18-.14.29-.21-.02-.41-.03-.59-.05-.05-.33-.09-6.21-.11-13.5h-1.33c0,3.99,0,7.98,0,11.97,0,.31.01.63,0,.94-.01.2-.07.39-.12.64-1.18.03-2.3.04-3.45-.01-1.04-1.02-2.08-2.02-3.1-3.04-1.01-1-.86-.64-.86-2.09,0-2.8,0-5.61,0-8.41h-1.38c0,3.36,0,6.72,0,10.08,0,.03,0,.08-.03.1-.02.02-.07.02-.15.03-.45-.22-.72-.58-.68-1.13.02-.24,0-.49,0-.73,0-2.78,0-5.56,0-8.34h-1.33c0,2.97,0,5.94,0,8.91,0,.28-.01.56,0,.84.02.24.07.48.11.73-1.8-1.77-3.57-3.52-5.42-5.34v-.92c0-1.4,0-2.81,0-4.21h-1.39c0,1.01,0,2.03,0,3.04,0,.66,0,1.32,0,1.98,0,.31.04.62.07,1.02-.19-.13-.37-.21-.49-.33-1.41-1.37-2.8-2.77-4.23-4.12-.48-.45-.65-.92-.65-1.56,0,0,0-.02,0-.03h-1.36s0,.03,0,.05c0,1.52-.21,1.25,1.02,2.46,3.49,3.42,6.99,6.84,10.49,10.26.1.1.22.18.3.29.05.08.25.13.12.32-.13-.1-.24-.18-.34-.27-3.98-3.88-7.95-7.77-11.93-11.65-.39-.38-.53-.76-.53-1.29,0-.06,0-.11,0-.17h-.83c-.12,0-.23,0-.35-.02v1.62c.13.2.36.39.8.83,1.38,1.36,2.77,2.7,4.15,4.06.16.16.41.28.38.6h-4.33c-.34-.33-.67-.66-1.01-.98v4.18c.41.25.86.36,1.4.33.92-.05,1.85-.02,2.77,0,.65.01.78.12,1.15.85-1.28,0-2.55-.02-3.82,0-.51.01-.87-.17-1.21-.52-.1-.1-.2-.2-.3-.3v1.83c.33.22.7.31,1.14.3,1.17-.03,2.34,0,3.48,0,2.18,2.17,4.32,4.29,6.56,6.52,0,.11-.02.32-.03.58.24.07.47.15.67.26,0-1.88,0-3.75,0-5.63,0-.06.04-.13.09-.27.16-.02.36-.06.56-.08.25-.01.5,0,.75,0,7.89,0,15.77,0,23.66,0,.42,0,.84.02,1.39.03,0,8.85,0,17.54,0,26.29-.28.04-.48.09-.68.09-1.1,0-2.2,0-3.3,0-7.07,0-14.14,0-21.2,0-.38,0-.77-.02-1.07-.03-.1-.09-.13-.11-.15-.14-.02-.03-.02-.07-.02-.1-.01-.24-.03-.49-.03-.73,0-4.47,0-8.94.01-13.42-.2.11-.42.19-.65.26.05.88.02,1.73,0,2.56-1.36,1.33-2.66,2.61-3.96,3.9-.24.24-.51.36-.85.34-.28-.02-.57,0-.85,0-1.84,0-3.67,0-5.51,0v1.3c2.44,0,4.89,0,7.33,0,.04,0,.07,0,.1.02.02.01.03.05.08.13-.27.46-.63.77-1.25.7-.25-.03-.5,0-.75,0-1.84,0-3.68,0-5.51,0v1.31c2.02,0,4.04,0,6.06,0,1.66,0,1.29.13,2.49-1.03.71-.68,1.4-1.39,2.11-2.07.1-.09.17-.33.41-.19-.03.03-.04.06-.07.09-2.7,2.67-5.41,5.33-8.11,8-.3.3-.62.44-1.04.4-.21-.02-.43,0-.64,0-.4,0-.81,0-1.21,0v1.36c.47,0,.95,0,1.42,0,.59,0,1.19-.03,1.84-.05-.2.22-.37.44-.56.63-.9.89-1.81,1.77-2.71,2.66v1.88c.06-.05.11-.1.17-.16,3.47-3.4,6.93-6.8,10.41-10.19.11-.11.19-.36.64-.21-.32.24-.56.4-.76.59-3.49,3.41-6.97,6.82-10.45,10.24v1.92c1.17-1.18,2.37-2.33,3.56-3.49.22-.21.38-.51.7-.55,0,1.22-.02,2.43.01,3.64.02.6-.17,1.05-.61,1.47-1.23,1.18-2.44,2.37-3.65,3.56v4.09c1.67-1.66,3.36-3.3,5.04-4.95.73-.71,1.43-1.45,2.19-2.14.46-.42.63-.88.61-1.48-.03-.94.01-1.88-.02-2.82-.02-.5.17-.85.52-1.19,1.77-1.71,3.52-3.44,5.29-5.16.07-.07.14-.26.36-.11-.23.23-.44.46-.66.67-1.33,1.31-2.65,2.62-4,3.91-.47.45-.68.93-.66,1.57.04.9-.02,1.81.02,2.72.02.54-.18.91-.56,1.28-2.72,2.65-5.43,5.31-8.14,7.97Zm47.56-14.16c.79-.04,1.35.21,1.72.92-1.32-.1-2.62-.04-3.93-.05q-.76-.01-1.36-.85c1.26,0,2.41.04,3.57-.01Zm-4.65-41.76c.19-.17.42-.37.66-.57.2.59.24,2.36.11,4.41-.26.31-.52.62-.91.83.22-1.54.02-3.07.13-4.67ZM14.97,18.98c-1.34-1.33-2.68-2.66-4.02-3.98-.17-.17-.36-.33-.52-.52-.35-.39-.77-.55-1.3-.54-1.02.03-2.03-.01-3.05.01-.6.02-.97-.24-1.22-.82h4.41c.96.79,5.82,5.67,6.2,6.31-.16-.16-.33-.31-.49-.47Zm-3.81,36.55c-.31.44-.6.72-.92.95v-4.55c.27-.28.48-.51.71-.72.07-.07.18-.1.21-.12v4.44Z"/>
  <polygon class="cls-1" points="22.87 42.35 34.09 23.32 34.56 25.2 22.87 42.35"/>
  <polygon class="cls-1" points="24.23 24.54 36.22 42.52 34.48 42.37 24.23 24.54"/>
  <g>
    <path class="cls-3" d="m11.27,68.36s.07.01.09.03c.02.02.04.05.04.09v.2c0,.1-.03.19-.08.25-.06.06-.13.1-.22.1h-.74v3.23h.8s.07,0,.09.03c.02.02.04.05.04.09v.2c0,.1-.03.19-.08.25-.06.06-.13.1-.22.1h-.62v3.47c0,.1-.03.19-.09.25-.06.07-.14.1-.26.1h-.34s-.07-.01-.09-.04c-.02-.02-.03-.05-.03-.09v-8.15s0-.07.03-.09c.02-.02.05-.04.09-.04h1.6Z"/>
    <path class="cls-3" d="m15.95,68.36s.07.01.09.03c.02.02.04.05.04.09v.2c0,.1-.03.19-.08.25-.06.06-.13.1-.22.1h-.74v3.23h.8s.07,0,.09.03c.02.02.04.05.04.09v.2c0,.1-.03.19-.08.25-.06.06-.13.1-.22.1h-.62v3.15h.74c.09,0,.17.03.22.1.06.06.08.15.08.25v.2s-.01.07-.04.09c-.02.02-.05.03-.09.03h-1.6s-.07-.01-.09-.04c-.02-.02-.03-.05-.03-.09v-8.15s0-.07.03-.09c.02-.02.05-.04.09-.04h1.6Z"/>
    <path class="cls-3" d="m20.28,68.36s.06.01.08.04c.02.02.03.05.04.08l.72,8.13s0,.07-.03.1c-.03.03-.07.05-.12.05h-.29c-.1,0-.18-.03-.25-.09-.07-.06-.1-.13-.11-.21l-.07-1.15h-.61l-.07,1.15c0,.08-.04.16-.11.21-.07.06-.15.09-.25.09h-.29c-.06,0-.1-.02-.12-.05-.03-.03-.04-.07-.03-.1l.72-8.13s.02-.06.04-.08c.02-.02.05-.04.08-.04h.68Zm-.61,6.28h.53l-.26-4.49-.26,4.49Z"/>
    <path class="cls-3" d="m25.14,68.36c.17,0,.33.03.47.08s.26.12.36.21c.1.09.18.2.23.32.05.13.08.27.08.43v2.84c0,.18-.04.32-.1.43-.07.11-.17.2-.29.27.12.07.22.16.29.27.07.11.1.25.1.42v3.01s0,.07-.03.09c-.02.02-.05.04-.09.04h-.34c-.12,0-.2-.03-.26-.1-.06-.07-.09-.15-.09-.25v-2.78c0-.11-.03-.2-.08-.26-.05-.07-.14-.1-.27-.1h-.35v3.14c0,.1-.03.19-.09.25-.06.07-.14.1-.26.1h-.34s-.07-.01-.09-.04c-.02-.02-.03-.05-.03-.09v-8.15s0-.07.03-.09c.02-.02.05-.04.09-.04h1.04Zm-.36.67v3.56h.35c.12,0,.21-.03.26-.1.06-.07.08-.15.08-.26v-2.84c0-.1-.03-.19-.09-.26-.06-.07-.15-.1-.26-.1h-.35Z"/>
    <path class="cls-3" d="m29.4,76.76s-.07-.01-.09-.04c-.02-.02-.03-.05-.03-.09v-8.15s0-.07.03-.09c.02-.02.05-.04.09-.04h.34c.1,0,.19.03.25.08.06.06.1.13.1.22v7.42h.74c.09,0,.17.03.22.1.06.06.08.15.08.25v.2s-.01.07-.04.09c-.02.02-.05.03-.09.03h-1.6Z"/>
    <path class="cls-3" d="m33.96,68.66c0-.09.03-.17.1-.22.06-.06.15-.08.25-.08h.34s.07.01.09.04c.02.02.03.05.03.09v8.06c0,.06-.02.11-.06.15s-.09.06-.15.06h-.37c-.06,0-.11-.02-.15-.06s-.06-.09-.06-.15v-7.88Z"/>
    <path class="cls-3" d="m39.32,72.56l.47,4.07s0,.07-.03.09c-.02.02-.05.04-.09.04h-.34c-.12,0-.2-.03-.26-.1-.05-.07-.08-.15-.09-.25l-.27-2.96-.26,2.96c0,.1-.04.19-.09.25-.05.07-.14.1-.25.1h-.34s-.07-.01-.09-.04c-.02-.02-.03-.05-.03-.09l.47-4.07-.47-4.07s0-.07.03-.09c.02-.02.05-.04.09-.04h.34c.12,0,.2.03.25.1.05.07.08.15.09.25l.26,2.96.27-2.96c0-.1.04-.19.09-.25.05-.07.14-.1.26-.1h.34s.07.01.09.04c.02.02.03.05.03.09l-.47,4.07Z"/>
    <path class="cls-3" d="m48.91,71.25c-.12,0-.2-.03-.26-.1-.06-.07-.09-.15-.09-.26v-1.61c0-.11-.03-.2-.09-.26-.06-.07-.15-.1-.26-.1s-.21.03-.26.1c-.06.07-.08.15-.08.26,0,.36.02.69.06.98.04.29.1.56.17.81s.15.48.24.7.18.44.27.66c.09.22.18.44.27.67.09.23.17.48.24.74.07.27.13.56.17.88.04.32.06.68.06,1.08,0,.16-.03.3-.08.43-.05.13-.13.23-.23.32-.1.09-.22.16-.37.21-.14.05-.3.07-.47.07-.36,0-.65-.09-.85-.28-.2-.18-.3-.44-.3-.76v-1.84s0-.07.03-.09c.02-.02.05-.04.09-.04h.34c.12,0,.2.03.26.1.06.07.09.15.09.25v1.61c0,.11.03.19.09.26.06.07.15.1.26.1s.21-.03.26-.1c.06-.07.08-.15.08-.26,0-.51-.04-.96-.11-1.34s-.17-.73-.28-1.05c-.11-.31-.23-.61-.36-.89-.13-.28-.25-.58-.36-.89-.11-.31-.21-.66-.28-1.03-.07-.38-.11-.82-.11-1.32,0-.16.03-.3.08-.43s.13-.23.23-.32c.1-.09.22-.16.36-.21.14-.05.3-.07.47-.07.36,0,.65.09.85.28.2.18.3.44.3.76v1.84s0,.07-.03.09c-.02.02-.05.04-.09.04h-.34Z"/>
    <path class="cls-3" d="m53.53,68.36c.17,0,.33.03.47.08s.26.12.36.21c.1.09.18.2.23.32.05.13.08.27.08.43v2.84c0,.18-.04.32-.1.43-.07.11-.17.2-.29.27.12.07.22.16.29.27.07.11.1.25.1.42v3.01s0,.07-.03.09c-.02.02-.05.04-.09.04h-.34c-.12,0-.2-.03-.26-.1-.06-.07-.09-.15-.09-.25v-2.78c0-.11-.03-.2-.08-.26-.05-.07-.14-.1-.27-.1h-.35v3.14c0,.1-.03.19-.09.25-.06.07-.14.1-.26.1h-.34s-.07-.01-.09-.04c-.02-.02-.03-.05-.03-.09v-8.15s0-.07.03-.09c.02-.02.05-.04.09-.04h1.04Zm-.36.67v3.56h.35c.12,0,.21-.03.26-.1.06-.07.08-.15.08-.26v-2.84c0-.1-.03-.19-.09-.26-.06-.07-.15-.1-.26-.1h-.35Z"/>
    <path class="cls-3" d="m57.79,76.76s-.07-.01-.09-.04c-.02-.02-.03-.05-.03-.09v-8.15s0-.07.03-.09c.02-.02.05-.04.09-.04h.34c.1,0,.19.03.25.08.06.06.1.13.1.22v7.42h.74c.09,0,.17.03.22.1.06.06.08.15.08.25v.2s-.01.07-.04.09c-.02.02-.05.03-.09.03h-1.6Z"/>
  </g>
  <polyline points="3.7 26.48 16.77 26.48 15.74 29.18 3.7 29.18"/>
  <polyline points="67.15 1.54 0 1.54 0 0 68.81 0"/>
  <polyline points="65.34 3.7 2.16 3.7 2.16 2.16 66.91 2.16"/>
  <polyline points="1.54 66.7 1.54 0 0 0 0 68.35"/>
  <polyline points="3.7 64.9 3.7 2.15 2.16 2.15 2.16 66.46"/>
</svg>